<svg viewBox="0 0 150 161" xmlns="http://www.w3.org/2000/svg" fill-rule="evenodd" clip-rule="evenodd" stroke-linejoin="round" stroke-miterlimit="2"><path d="M51.708 21.957v122.681l-5.813 5.813H24.007l-14.43-14.43v-30.506l14.43-14.431h1.812c1.806 3.956 5.78 6.702 10.381 6.702 6.295 0 11.419-5.142 11.419-11.49 0-6.35-5.124-11.491-11.419-11.491-4.6 0-8.575 2.746-10.381 6.702h-3.795c-1.27 0-2.487.505-3.385 1.403L1.403 100.146A4.786 4.786 0 000 103.531v34.473c0 1.27.505 2.487 1.403 3.385l17.236 17.236a4.786 4.786 0 003.385 1.403h25.854c1.27 0 2.488-.505 3.386-1.403l8.618-8.618a4.784 4.784 0 001.403-3.385V21.89a11.502 11.502 0 006.557-10.4C67.842 5.143 62.72 0 56.424 0c-6.295 0-11.418 5.142-11.418 11.49a11.5 11.5 0 006.702 10.467zm35.524 122.776c.537-1.332.834-2.79.834-4.316 0-6.349-5.124-11.491-11.418-11.491-6.295 0-11.419 5.142-11.419 11.49 0 6.35 5.124 11.491 11.419 11.491a11.31 11.31 0 003.625-.593l7.31 7.31a4.784 4.784 0 003.386 1.404h34.472c1.27 0 2.487-.505 3.385-1.403l17.236-17.236a4.785 4.785 0 000-6.77l-17.236-17.237a4.784 4.784 0 00-3.385-1.403H92.95l-12.447-12.448 12.448-12.447h30.505l4.794 4.793a11.486 11.486 0 00-1.087 4.897c0 6.348 5.124 11.49 11.419 11.49 6.294 0 11.418-5.142 11.418-11.49 0-6.349-5.124-11.491-11.418-11.491-1.034 0-2.034.138-2.986.398l-6.771-6.77a4.784 4.784 0 00-3.385-1.404H90.969c-1.27 0-2.488.505-3.386 1.403l-17.236 17.236a4.787 4.787 0 000 6.77l17.236 17.237a4.784 4.784 0 003.386 1.403h32.488l12.448 12.448c-3.79 3.79-9.754 9.755-12.448 12.447H92.952l-5.72-5.718z"/></svg>