<svg viewBox="0 0 24 24" fill-rule="evenodd" clip-rule="evenodd" stroke-linejoin="round" stroke-miterlimit="2" xmlns="http://www.w3.org/2000/svg"><path fill="gold" d="M22.369 14.045H4.037a2.618 2.618 0 0 1-2.656.173A2.493 2.493 0 0 1 0 12c0-.933.533-1.788 1.381-2.218a2.618 2.618 0 0 1 2.656.173h18.332c.9 0 1.631.712 1.631 1.59v.91c0 .878-.73 1.59-1.631 1.59zM4.124 12c0-.404-.164-.791-.457-1.077a1.581 1.581 0 0 0-1.104-.446c-.414 0-.811.16-1.104.446A1.504 1.504 0 0 0 1.002 12c0 .404.164.791.457 1.077.293.285.69.446 1.104.446.414 0 .811-.16 1.104-.446.293-.286.457-.673.457-1.077zM4.187 18c0-.404-.167-.791-.464-1.077a1.618 1.618 0 0 0-1.121-.446c-.42 0-.824.16-1.12.446A1.493 1.493 0 0 0 1.016 18c0 .404.167.791.464 1.077.297.285.7.446 1.121.446.42 0 .823-.16 1.12-.446.298-.286.465-.673.465-1.077zm16.157 2.045H4.098a2.692 2.692 0 0 1-2.695.173C.54 19.788 0 18.933 0 18s.54-1.788 1.403-2.218a2.692 2.692 0 0 1 2.695.173h16.246c.915 0 1.656.712 1.656 1.59v.91c0 .878-.741 1.59-1.656 1.59zM24 6.455c0 .878-.73 1.59-1.631 1.59H4.037a2.618 2.618 0 0 1-2.656.173A2.493 2.493 0 0 1 0 6c0-.933.533-1.788 1.381-2.218a2.618 2.618 0 0 1 2.65.168l.006.005h18.332c.9 0 1.631.712 1.631 1.59ZM4.124 6c0-.404-.164-.791-.457-1.077a1.581 1.581 0 0 0-1.104-.446c-.414 0-.811.16-1.104.446A1.504 1.504 0 0 0 1.002 6c0 .404.164.791.457 1.077.293.285.69.446 1.104.446.414 0 .811-.16 1.104-.446.293-.286.457-.673.457-1.077z"/></svg>