<svg xmlns="http://www.w3.org/2000/svg" fill-rule="evenodd" width="24" height="24">
    <path fill="#bbb"
        d="M18.55 11.243h1.642a1.905 1.905 0 110 1.514H18.55v4.686h1.642a1.905 1.905 0 110 1.514H18.55v2.531c0 .635-.515 1.151-1.15 1.151H6.6c-.635 0-1.15-.516-1.15-1.15v-2.532H3.808a1.905 1.905 0 110-1.514H5.45v-4.686H3.808a1.905 1.905 0 110-1.514H5.45V6.557H3.808a1.905 1.905 0 110-1.514H5.45V2.512c0-.636.515-1.152 1.15-1.152h10.8c.635 0 1.15.516 1.15 1.152v2.53h1.642a1.905 1.905 0 110 1.515H18.55v4.686zM14.452 12l-.218.133a.877.877 0 00-.418.746v2.993l-1.018.633a.875.875 0 10.921 1.486l1.433-.89a.875.875 0 00.414-.742v-2.99l1.015-.621a.877.877 0 00.418-.735v-.027a.879.879 0 00-.418-.734l-1.015-.621V7.64a.875.875 0 00-.414-.743L13.72 6.01a.875.875 0 00-.921 1.486l1.018.633v2.993c0 .304.16.586.418.745l.218.134zm-7.45-.014v.027c.004.29.152.571.417.735l1.015.621v2.99c0 .302.157.583.414.743l1.433.889a.875.875 0 00.921-1.486l-1.018-.633v-2.993a.877.877 0 00-.418-.746L9.548 12l.218-.134a.874.874 0 00.418-.745V8.128l1.018-.633a.875.875 0 10-.921-1.486l-1.433.89a.875.875 0 00-.414.742v2.99l-1.015.621a.879.879 0 00-.418.734z"
         />
</svg>