<svg xmlns="http://www.w3.org/2000/svg" fill-rule="evenodd" width="24" height="24">
    <path fill="#000" 
        d="M.11 12.001a.634.634 0 00.35.569l2.278 1.15v4.864c0 .238.134.456.346.565l2.627 1.342a.634.634 0 00.577-1.129l-2.282-1.166V13.33a.634.634 0 00-.348-.566L2.148 12l1.51-.762a.633.633 0 00.348-.566V5.806l2.282-1.165a.635.635 0 00-.577-1.13L3.084 4.854a.634.634 0 00-.346.564v4.865l-2.279 1.15A.633.633 0 00.111 12zM21.853 12l-1.51.762a.634.634 0 00-.348.566v4.867l-2.282 1.165a.634.634 0 00.577 1.13l2.627-1.343a.633.633 0 00.346-.564v-4.865l2.28-1.15A.635.635 0 0023.89 12a.635.635 0 00-.349-.568l-2.28-1.15V5.416a.635.635 0 00-.345-.565L18.29 3.51a.635.635 0 00-.577 1.13l2.282 1.165v4.867c0 .24.135.458.348.566l1.51.762zM8.438 8.204V6.828c0-.345.28-.626.626-.626h5.872c.345 0 .626.28.626.626v1.376h.892a1.037 1.037 0 110 .824h-.892v2.547h.892a1.037 1.037 0 110 .824h-.892v2.548h.892a1.037 1.037 0 110 .823h-.892v1.376c0 .346-.28.627-.626.627H9.064a.627.627 0 01-.626-.627V15.77h-.892a1.036 1.036 0 110-.824h.892V12.4h-.892a1.036 1.036 0 110-.824h.892V9.028h-.892a1.036 1.036 0 110-.824h.892zm1.456-1.118a.56.56 0 11-.001 1.12.56.56 0 010-1.12z" />
</svg>