<svg xmlns="http://www.w3.org/2000/svg" fill-rule="evenodd" viewBox="0 0 24 24">
    <path fill="#2eb6ff"
        d="M18.499 11.248h1.628a1.89 1.89 0 110 1.503h-1.628V17.4h1.628a1.89 1.89 0 110 1.503h-1.628v2.51c0 .63-.512 1.143-1.142 1.143H6.644c-.63 0-1.141-.513-1.141-1.143v-2.51h-1.63a1.89 1.89 0 110-1.503h1.63V12.75h-1.63a1.89 1.89 0 110-1.503h1.63V6.601h-1.63a1.89 1.89 0 110-1.503h1.63v-2.51c0-.63.51-1.143 1.14-1.143h10.714c.63 0 1.142.513 1.142 1.143v2.51h1.628a1.89 1.89 0 110 1.503h-1.628v4.647zM14.895 12l-.216.132a.869.869 0 00-.414.74v2.97l-1.01.626a.868.868 0 00.914 1.475l1.421-.882a.868.868 0 00.41-.738v-2.965l1.007-.617a.87.87 0 00.415-.728v-.026a.87.87 0 00-.415-.729L16 10.641V7.676c0-.3-.155-.58-.41-.738l-1.421-.882a.869.869 0 00-.915 1.476l1.01.626v2.97c0 .302.158.582.415.74l.216.132zm-8.316-.013v.026a.87.87 0 00.415.728L8 13.358v2.965c0 .301.156.58.41.738l1.422.882a.869.869 0 00.914-1.475l-1.01-.627v-2.969a.869.869 0 00-.415-.74L9.105 12l.216-.133a.867.867 0 00.415-.74V8.159l1.01-.626a.868.868 0 00-.914-1.476l-1.422.882a.868.868 0 00-.41.738v2.965l-1.006.617a.87.87 0 00-.415.729zM12 13.415A1.004 1.004 0 1112 15.423 1.004 1.004 0 0112 13.415zm0-4.837a1.003 1.003 0 110 2.007 1.003 1.003 0 010-2.007z" />
</svg>